HIERARCHY
ROOT Root
{
	OFFSET 0.00000 0.00000 0.00000
	CHANNELS 6 Xposition Yposition Zposition Zrotation Xrotation Yrotation
	JOINT Hips
	{
		OFFSET 0 0 0	
		CHANNELS 3 Zrotation Xrotation Yrotation
		JOINT Spine
		{
			OFFSET 0 4 0	
			CHANNELS 3 Zrotation Xrotation Yrotation
			JOINT Spine1
			{
				OFFSET 0 19.4 0	
				CHANNELS 3 Zrotation Xrotation Yrotation
				JOINT Spine2
				{
					OFFSET 0 16.6 0	
					CHANNELS 3 Zrotation Xrotation Yrotation
					JOINT LeftCollar
					{
						OFFSET 0 10 0	
						CHANNELS 3 Zrotation Xrotation Yrotation
						JOINT LeftArm
						{
							OFFSET 15.6 -2 3	
							CHANNELS 3 Zrotation Xrotation Yrotation
							JOINT LeftForeArm
							{
								OFFSET 3.5 -27 -1	
								CHANNELS 3 Zrotation Xrotation Yrotation
								JOINT LeftHand
								{
									OFFSET 1 -27 1	
									CHANNELS 3 Zrotation Xrotation Yrotation
									End Site
									{
										OFFSET 0 -15 0
									}
								}
							}
						}
					}
					JOINT RightCollar
					{
						OFFSET 0 10 0	
						CHANNELS 3 Zrotation Xrotation Yrotation
						JOINT RightArm
						{
							OFFSET -15.6 -2 3	
							CHANNELS 3 Zrotation Xrotation Yrotation
							JOINT RightForeArm
							{
								OFFSET -3.5 -27 -1	
								CHANNELS 3 Zrotation Xrotation Yrotation
								JOINT RightHand
								{
									OFFSET -1 -27 1	
									CHANNELS 3 Zrotation Xrotation Yrotation
									End Site
									{
										OFFSET 0 -15 0
									}
								}
							}
						}
					}
					JOINT Neck
					{
						OFFSET 0 10 0	
						CHANNELS 3 Zrotation Xrotation Yrotation
						JOINT Head
						{
							OFFSET 0 12.7 3	
							CHANNELS 3 Zrotation Xrotation Yrotation
							End Site
							{
								OFFSET 0 12.7 3
							}
						}
					}
				}
			}
		}
	}
	JOINT LeftHip
	{
		OFFSET 0 0 0	
		CHANNELS 3 Zrotation Xrotation Yrotation
		JOINT LeftUpLeg
		{
			OFFSET 8.8 -6 0	
			CHANNELS 3 Zrotation Xrotation Yrotation
			JOINT LeftLeg
			{
				OFFSET 0 -39 2	
				CHANNELS 3 Zrotation Xrotation Yrotation
				JOINT LeftFoot
				{
					OFFSET 0 -43 -2	
					CHANNELS 3 Zrotation Xrotation Yrotation
					JOINT LeftFootFront
					{
						OFFSET 0 -7 8.5	
						CHANNELS 3 Zrotation Xrotation Yrotation
						End Site
						{
							OFFSET 0 -0.5 9
						}
					}
				}
				JOINT LeftHeel
				{
					OFFSET 0 -43 -2	
					CHANNELS 3 Zrotation Xrotation Yrotation
					End Site
					{
						OFFSET 0 -7.5 -5
					}
				}
			}
		}
	}
	JOINT RightHip
	{
		OFFSET 0 0 0	
		CHANNELS 3 Zrotation Xrotation Yrotation
		JOINT RightUpLeg
		{
			OFFSET -8.8 -6 0	
			CHANNELS 3 Zrotation Xrotation Yrotation
			JOINT RightLeg
			{
				OFFSET 0 -39 2	
				CHANNELS 3 Zrotation Xrotation Yrotation
				JOINT RightFoot
				{
					OFFSET 0 -43 -2	
					CHANNELS 3 Zrotation Xrotation Yrotation
					JOINT RightFootFront
					{
						OFFSET 0 -7 8.5	
						CHANNELS 3 Zrotation Xrotation Yrotation
						End Site
						{
							OFFSET 0 -0.5 9
						}
					}
				}
				JOINT RightHeel
				{
					OFFSET 0 -43 -2	
					CHANNELS 3 Zrotation Xrotation Yrotation
					End Site
					{
						OFFSET 0 -7.5 -5
					}
				}
			}
		}
	}
}
MOTION
Frames: 33
Frame Time: 0.05
0 95.5 0 -0 0 -0 -0 0 -0 -0 0 -0 6.6677 -1.559 49.076 -0 0 -0 -0 0 -0 7.8579 -2.7579 -21.404 -127.4 -60.575 -99.79 -0 0 -0 -0 0 -0 0.79766 -8.3907 46.406 124.43 -50.869 39.515 -0 0 -0 6.4976 2.3156 32.736 6.4976 2.3156 32.736 -0 0 -0 -0 0 -0 -0 0 -0 -0 0 -0 -0 0 -0 -0 0 -0 -0 0 -0 -0 0 -0 -0 0 -0 -0 0 -0 -0 0 -0 -0 0 -0 
0 95.5 0 -0 0 -0 -0 0 -0 -0 0 -0 6.429 -1.2326 48.846 -0 0 -0 -0 0 -0 7.628 -2.9569 -21.299 -129.49 -59.572 -103.76 -0 0 -0 -0 0 -0 0.5882 -8.7416 46.467 124.5 -50.993 43.765 -0 0 -0 6.3424 2.2437 32.827 6.3424 2.2437 32.827 -0 0 -0 -0 0 -0 -0 0 -0 -0 0 -0 -0 0 -0 -0 0 -0 -0 0 -0 -0 0 -0 -0 0 -0 -0 0 -0 -0 0 -0 -0 0 -0 
0 95.5 0 -0 0 -0 -0 0 -0 -0 0 -0 6.2939 -0.90304 48.572 -0 0 -0 -0 0 -0 7.5964 -3.0481 -21.303 -131.02 -58.442 -106.18 -0 0 -0 -0 0 -0 0.45585 -9.0247 46.272 123.87 -50.985 47.022 -0 0 -0 6.2137 2.083 32.995 6.2137 2.083 32.995 -0 0 -0 -0 0 -0 -0 0 -0 -0 0 -0 -0 0 -0 -0 0 -0 -0 0 -0 -0 0 -0 -0 0 -0 -0 0 -0 -0 0 -0 -0 0 -0 
0 95.5 0 -0 0 -0 -0 0 -0 -0 0 -0 5.9547 -0.58557 48.47 -0 0 -0 -0 0 -0 7.9271 -3.2734 -21.593 -132.23 -57.626 -107.64 -0 0 -0 -0 0 -0 0.31961 -9.4391 46.202 123.51 -51.144 50.033 -0 0 -0 6.1971 1.7708 33.112 6.1971 1.7708 33.112 -0 0 -0 -0 0 -0 -0 0 -0 -0 0 -0 -0 0 -0 -0 0 -0 -0 0 -0 -0 0 -0 -0 0 -0 -0 0 -0 -0 0 -0 -0 0 -0 
0 95.5 0 -0 0 -0 -0 0 -0 -0 0 -0 5.5693 -0.35386 48.501 -0 0 -0 -0 0 -0 8.2833 -3.449 -21.883 -132.93 -57.02 -108.32 -0 0 -0 -0 0 -0 0.17594 -9.6686 46.201 123.55 -51.241 51.82 -0 0 -0 6.2478 1.5227 33.134 6.2478 1.5227 33.134 -0 0 -0 -0 0 -0 -0 0 -0 -0 0 -0 -0 0 -0 -0 0 -0 -0 0 -0 -0 0 -0 -0 0 -0 -0 0 -0 -0 0 -0 -0 0 -0 
0 95.5 0 -0 0 -0 -0 0 -0 -0 0 -0 5.3125 -0.3103 48.61 -0 0 -0 -0 0 -0 8.3668 -3.3798 -21.856 -132.52 -56.702 -107.7 -0 0 -0 -0 0 -0 0.17212 -9.5702 46.066 123.18 -51.211 51.431 -0 0 -0 6.3484 1.4695 33.039 6.3484 1.4695 33.039 -0 0 -0 -0 0 -0 -0 0 -0 -0 0 -0 -0 0 -0 -0 0 -0 -0 0 -0 -0 0 -0 -0 0 -0 -0 0 -0 -0 0 -0 -0 0 -0 
0 95.5 0 -0 0 -0 -0 0 -0 -0 0 -0 5.2846 -0.31826 48.635 -0 0 -0 -0 0 -0 8.0491 -3.1278 -21.362 -131.08 -56.56 -105.65 -0 0 -0 -0 0 -0 0.082417 -9.3213 45.845 122.64 -51.102 50.404 -0 0 -0 6.3911 1.5731 32.951 6.3911 1.5731 32.951 -0 0 -0 -0 0 -0 -0 0 -0 -0 0 -0 -0 0 -0 -0 0 -0 -0 0 -0 -0 0 -0 -0 0 -0 -0 0 -0 -0 0 -0 -0 0 -0 
0 95.5 0 -0 0 -0 -0 0 -0 -0 0 -0 5.2243 -0.32641 48.681 -0 0 -0 -0 0 -0 7.7443 -2.9637 -20.945 -129.9 -56.465 -103.96 -0 0 -0 -0 0 -0 -0.053173 -9.1798 45.744 122.45 -51.009 50.232 -0 0 -0 6.3954 1.6475 32.921 6.3954 1.6475 32.921 -0 0 -0 -0 0 -0 -0 0 -0 -0 0 -0 -0 0 -0 -0 0 -0 -0 0 -0 -0 0 -0 -0 0 -0 -0 0 -0 -0 0 -0 -0 0 -0 
0 95.5 0 -0 0 -0 -0 0 -0 -0 0 -0 5.001 -0.31334 48.829 -0 0 -0 -0 0 -0 7.6846 -3.0108 -20.848 -129.49 -56.438 -103.36 -0 0 -0 -0 0 -0 -0.19822 -9.2553 45.843 122.58 -50.98 50.263 -0 0 -0 6.4016 1.6294 32.923 6.4016 1.6294 32.923 -0 0 -0 -0 0 -0 -0 0 -0 -0 0 -0 -0 0 -0 -0 0 -0 -0 0 -0 -0 0 -0 -0 0 -0 -0 0 -0 -0 0 -0 -0 0 -0 
0 95.5 0 -0 0 -0 -0 0 -0 -0 0 -0 4.8896 -0.35871 48.992 -0 0 -0 -0 0 -0 7.6914 -3.0073 -20.759 -129.01 -56.402 -102.53 -0 0 -0 -0 0 -0 -0.4136 -9.2424 46.052 122.66 -51.003 49.897 -0 0 -0 6.4007 1.6531 32.941 6.4007 1.6531 32.941 -0 0 -0 -0 0 -0 -0 0 -0 -0 0 -0 -0 0 -0 -0 0 -0 -0 0 -0 -0 0 -0 -0 0 -0 -0 0 -0 -0 0 -0 -0 0 -0 
0 95.5 0 -0 0 -0 -0 0 -0 -0 0 -0 4.9117 -0.38263 49.111 -0 0 -0 -0 0 -0 7.6326 -2.9411 -20.574 -128.08 -56.425 -101.01 -0 0 -0 -0 0 -0 -0.62568 -9.149 46.229 122.62 -51.187 49.447 -0 0 -0 6.3794 1.683 32.968 6.3794 1.683 32.968 -0 0 -0 -0 0 -0 -0 0 -0 -0 0 -0 -0 0 -0 -0 0 -0 -0 0 -0 -0 0 -0 -0 0 -0 -0 0 -0 -0 0 -0 -0 0 -0 
0 95.5 0 -0 0 -0 -0 0 -0 -0 0 -0 4.9153 -0.33323 49.184 -0 0 -0 -0 0 -0 7.5571 -2.9343 -20.396 -127.37 -56.458 -99.879 -0 0 -0 -0 0 -0 -0.79947 -9.0672 46.286 122.71 -51.274 49.47 -0 0 -0 6.376 1.6429 32.991 6.376 1.6429 32.991 -0 0 -0 -0 0 -0 -0 0 -0 -0 0 -0 -0 0 -0 -0 0 -0 -0 0 -0 -0 0 -0 -0 0 -0 -0 0 -0 -0 0 -0 -0 0 -0 
0 95.5 0 -0 0 -0 -0 0 -0 -0 0 -0 4.9186 -0.31487 49.232 -0 0 -0 -0 0 -0 7.5286 -2.9456 -20.293 -126.94 -56.479 -99.2 -0 0 -0 -0 0 -0 -0.84947 -8.9619 46.241 122.63 -51.204 49.308 -0 0 -0 6.4432 1.5912 32.974 6.4432 1.5912 32.974 -0 0 -0 -0 0 -0 -0 0 -0 -0 0 -0 -0 0 -0 -0 0 -0 -0 0 -0 -0 0 -0 -0 0 -0 -0 0 -0 -0 0 -0 -0 0 -0 
0 95.5 0 -0 0 -0 -0 0 -0 -0 0 -0 4.9993 -0.36866 49.254 -0 0 -0 -0 0 -0 7.5201 -2.8846 -20.24 -126.51 -56.503 -98.477 -0 0 -0 -0 0 -0 -0.88212 -8.786 46.207 122.5 -51.216 49.111 -0 0 -0 6.5847 1.575 32.895 6.5847 1.575 32.895 -0 0 -0 -0 0 -0 -0 0 -0 -0 0 -0 -0 0 -0 -0 0 -0 -0 0 -0 -0 0 -0 -0 0 -0 -0 0 -0 -0 0 -0 -0 0 -0 
0 95.5 0 -0 0 -0 -0 0 -0 -0 0 -0 5.0218 -0.38606 49.27 -0 0 -0 -0 0 -0 7.5485 -2.8974 -20.26 -126.18 -56.546 -97.883 -0 0 -0 -0 0 -0 -0.9052 -8.7374 46.169 122.42 -51.251 49.087 -0 0 -0 6.7831 1.4704 32.784 6.7831 1.4704 32.784 -0 0 -0 -0 0 -0 -0 0 -0 -0 0 -0 -0 0 -0 -0 0 -0 -0 0 -0 -0 0 -0 -0 0 -0 -0 0 -0 -0 0 -0 -0 0 -0 
0 95.5 0 -0 0 -0 -0 0 -0 -0 0 -0 5.0424 -0.4324 49.278 -0 0 -0 -0 0 -0 7.6036 -2.906 -20.311 -126.01 -56.549 -97.596 -0 0 -0 -0 0 -0 -0.89466 -8.6988 46.114 122.39 -51.299 49.295 -0 0 -0 7.0607 1.3346 32.662 7.0607 1.3346 32.662 -0 0 -0 -0 0 -0 -0 0 -0 -0 0 -0 -0 0 -0 -0 0 -0 -0 0 -0 -0 0 -0 -0 0 -0 -0 0 -0 -0 0 -0 -0 0 -0 
0 95.5 0 -0 0 -0 -0 0 -0 -0 0 -0 5.0913 -0.51896 49.259 -0 0 -0 -0 0 -0 7.6624 -2.8745 -20.347 -125.94 -56.532 -97.471 -0 0 -0 -0 0 -0 -0.8794 -8.6458 46.068 122.36 -51.315 49.428 -0 0 -0 7.3863 1.2346 32.528 7.3863 1.2346 32.528 -0 0 -0 -0 0 -0 -0 0 -0 -0 0 -0 -0 0 -0 -0 0 -0 -0 0 -0 -0 0 -0 -0 0 -0 -0 0 -0 -0 0 -0 -0 0 -0 
0 95.5 0 -0 0 -0 -0 0 -0 -0 0 -0 5.1648 -0.58374 49.22 -0 0 -0 -0 0 -0 7.6781 -2.8102 -20.369 -125.88 -56.526 -97.373 -0 0 -0 -0 0 -0 -0.90906 -8.5792 46.053 122.38 -51.331 49.446 -0 0 -0 7.6862 1.1836 32.363 7.6862 1.1836 32.363 -0 0 -0 -0 0 -0 -0 0 -0 -0 0 -0 -0 0 -0 -0 0 -0 -0 0 -0 -0 0 -0 -0 0 -0 -0 0 -0 -0 0 -0 -0 0 -0 
0 95.5 0 -0 0 -0 -0 0 -0 -0 0 -0 5.1998 -0.61455 49.181 -0 0 -0 -0 0 -0 7.6872 -2.752 -20.354 -125.73 -56.495 -97.109 -0 0 -0 -0 0 -0 -0.95305 -8.5666 46.037 122.34 -51.312 49.324 -0 0 -0 7.9448 1.1556 32.199 7.9448 1.1556 32.199 -0 0 -0 -0 0 -0 -0 0 -0 -0 0 -0 -0 0 -0 -0 0 -0 -0 0 -0 -0 0 -0 -0 0 -0 -0 0 -0 -0 0 -0 -0 0 -0 
0 95.5 0 -0 0 -0 -0 0 -0 -0 0 -0 5.2189 -0.61662 49.181 -0 0 -0 -0 0 -0 7.6909 -2.6851 -20.321 -125.55 -56.441 -96.86 -0 0 -0 -0 0 -0 -1.0184 -8.5491 45.989 122.34 -51.338 49.293 -0 0 -0 8.1593 1.1477 32.06 8.1593 1.1477 32.06 -0 0 -0 -0 0 -0 -0 0 -0 -0 0 -0 -0 0 -0 -0 0 -0 -0 0 -0 -0 0 -0 -0 0 -0 -0 0 -0 -0 0 -0 -0 0 -0 
0 95.5 0 -0 0 -0 -0 0 -0 -0 0 -0 5.2697 -0.5792 49.173 -0 0 -0 -0 0 -0 7.6807 -2.6204 -20.251 -125.33 -56.405 -96.492 -0 0 -0 -0 0 -0 -1.0977 -8.5065 45.902 122.28 -51.326 49.134 -0 0 -0 8.3221 1.1645 32.007 8.3221 1.1645 32.007 -0 0 -0 -0 0 -0 -0 0 -0 -0 0 -0 -0 0 -0 -0 0 -0 -0 0 -0 -0 0 -0 -0 0 -0 -0 0 -0 -0 0 -0 -0 0 -0 
0 95.5 0 -0 0 -0 -0 0 -0 -0 0 -0 5.3407 -0.50158 49.176 -0 0 -0 -0 0 -0 7.6716 -2.594 -20.248 -125.11 -56.44 -96.109 -0 0 -0 -0 0 -0 -1.2002 -8.4321 45.813 122.25 -51.301 49.053 -0 0 -0 8.4335 1.1822 32.072 8.4335 1.1822 32.072 -0 0 -0 -0 0 -0 -0 0 -0 -0 0 -0 -0 0 -0 -0 0 -0 -0 0 -0 -0 0 -0 -0 0 -0 -0 0 -0 -0 0 -0 -0 0 -0 
0 95.5 0 -0 0 -0 -0 0 -0 -0 0 -0 5.4185 -0.45786 49.202 -0 0 -0 -0 0 -0 7.7111 -2.5877 -20.314 -124.94 -56.509 -95.785 -0 0 -0 -0 0 -0 -1.2473 -8.3016 45.751 122.26 -51.26 49.125 -0 0 -0 8.5168 1.2023 32.188 8.5168 1.2023 32.188 -0 0 -0 -0 0 -0 -0 0 -0 -0 0 -0 -0 0 -0 -0 0 -0 -0 0 -0 -0 0 -0 -0 0 -0 -0 0 -0 -0 0 -0 -0 0 -0 
0 95.5 0 -0 0 -0 -0 0 -0 -0 0 -0 5.4904 -0.41483 49.241 -0 0 -0 -0 0 -0 7.7459 -2.5879 -20.403 -124.87 -56.549 -95.668 -0 0 -0 -0 0 -0 -1.2526 -8.2298 45.743 122.31 -51.245 49.298 -0 0 -0 8.5548 1.2122 32.268 8.5548 1.2122 32.268 -0 0 -0 -0 0 -0 -0 0 -0 -0 0 -0 -0 0 -0 -0 0 -0 -0 0 -0 -0 0 -0 -0 0 -0 -0 0 -0 -0 0 -0 -0 0 -0 
0 95.5 0 -0 0 -0 -0 0 -0 -0 0 -0 5.5375 -0.37382 49.282 -0 0 -0 -0 0 -0 7.7755 -2.5798 -20.466 -124.93 -56.521 -95.802 -0 0 -0 -0 0 -0 -1.2618 -8.2029 45.821 122.39 -51.244 49.603 -0 0 -0 8.568 1.203 32.345 8.568 1.203 32.345 -0 0 -0 -0 0 -0 -0 0 -0 -0 0 -0 -0 0 -0 -0 0 -0 -0 0 -0 -0 0 -0 -0 0 -0 -0 0 -0 -0 0 -0 -0 0 -0 
0 95.5 0 -0 0 -0 -0 0 -0 -0 0 -0 5.5225 -0.33355 49.329 -0 0 -0 -0 0 -0 7.8268 -2.6171 -20.472 -125.02 -56.47 -95.984 -0 0 -0 -0 0 -0 -1.2744 -8.2282 45.916 122.49 -51.283 49.91 -0 0 -0 8.5753 1.1619 32.45 8.5753 1.1619 32.45 -0 0 -0 -0 0 -0 -0 0 -0 -0 0 -0 -0 0 -0 -0 0 -0 -0 0 -0 -0 0 -0 -0 0 -0 -0 0 -0 -0 0 -0 -0 0 -0 
0 95.5 0 -0 0 -0 -0 0 -0 -0 0 -0 5.5372 -0.3195 49.369 -0 0 -0 -0 0 -0 7.8392 -2.6353 -20.463 -124.96 -56.462 -95.976 -0 0 -0 -0 0 -0 -1.2818 -8.1838 45.957 122.55 -51.335 50.106 -0 0 -0 8.5479 1.1403 32.549 8.5479 1.1403 32.549 -0 0 -0 -0 0 -0 -0 0 -0 -0 0 -0 -0 0 -0 -0 0 -0 -0 0 -0 -0 0 -0 -0 0 -0 -0 0 -0 -0 0 -0 -0 0 -0 
0 95.5 0 -0 0 -0 -0 0 -0 -0 0 -0 5.5929 -0.34385 49.388 -0 0 -0 -0 0 -0 7.8333 -2.6196 -20.477 -124.9 -56.461 -95.943 -0 0 -0 -0 0 -0 -1.2736 -8.0899 45.942 122.56 -51.365 50.431 -0 0 -0 8.5136 1.1407 32.663 8.5136 1.1407 32.662 -0 0 -0 -0 0 -0 -0 0 -0 -0 0 -0 -0 0 -0 -0 0 -0 -0 0 -0 -0 0 -0 -0 0 -0 -0 0 -0 -0 0 -0 -0 0 -0 
0 95.5 0 -0 0 -0 -0 0 -0 -0 0 -0 5.614 -0.33567 49.392 -0 0 -0 -0 0 -0 7.8466 -2.6582 -20.563 -125.07 -56.449 -96.196 -0 0 -0 -0 0 -0 -1.2709 -8.0747 45.954 122.64 -51.371 50.897 -0 0 -0 8.4574 1.1239 32.846 8.4574 1.1239 32.846 -0 0 -0 -0 0 -0 -0 0 -0 -0 0 -0 -0 0 -0 -0 0 -0 -0 0 -0 -0 0 -0 -0 0 -0 -0 0 -0 -0 0 -0 -0 0 -0 
0 95.5 0 -0 0 -0 -0 0 -0 -0 0 -0 5.6142 -0.35892 49.405 -0 0 -0 -0 0 -0 7.9224 -2.6921 -20.692 -125.39 -56.401 -96.634 -0 0 -0 -0 0 -0 -1.2403 -8.0792 46.018 122.76 -51.386 51.321 -0 0 -0 8.3589 1.1025 33.097 8.3589 1.1025 33.097 -0 0 -0 -0 0 -0 -0 0 -0 -0 0 -0 -0 0 -0 -0 0 -0 -0 0 -0 -0 0 -0 -0 0 -0 -0 0 -0 -0 0 -0 -0 0 -0 
0 95.5 0 -0 0 -0 -0 0 -0 -0 0 -0 5.6929 -0.37939 49.375 -0 0 -0 -0 0 -0 7.9276 -2.6833 -20.733 -125.51 -56.355 -96.842 -0 0 -0 -0 0 -0 -1.2541 -8.0158 46.128 122.85 -51.446 51.592 -0 0 -0 8.1786 1.0759 33.405 8.1786 1.0759 33.405 -0 0 -0 -0 0 -0 -0 0 -0 -0 0 -0 -0 0 -0 -0 0 -0 -0 0 -0 -0 0 -0 -0 0 -0 -0 0 -0 -0 0 -0 -0 0 -0 
0 95.5 0 -0 0 -0 -0 0 -0 -0 0 -0 5.7465 -0.39479 49.373 -0 0 -0 -0 0 -0 7.8963 -2.6894 -20.739 -125.4 -56.314 -96.803 -0 0 -0 -0 0 -0 -1.282 -7.9803 46.117 122.89 -51.471 51.691 -0 0 -0 7.9777 0.97799 33.693 7.9777 0.97799 33.693 -0 0 -0 -0 0 -0 -0 0 -0 -0 0 -0 -0 0 -0 -0 0 -0 -0 0 -0 -0 0 -0 -0 0 -0 -0 0 -0 -0 0 -0 -0 0 -0 
0 95.5 0 -0 0 -0 -0 0 -0 -0 0 -0 5.7295 -0.39983 49.368 -0 0 -0 -0 0 -0 7.8896 -2.7218 -20.725 -125.32 -56.264 -96.761 -0 0 -0 -0 0 -0 -1.2567 -8.0209 46.084 122.88 -51.44 51.828 -0 0 -0 7.7809 0.81952 33.988 7.7809 0.81952 33.988 -0 0 -0 -0 0 -0 -0 0 -0 -0 0 -0 -0 0 -0 -0 0 -0 -0 0 -0 -0 0 -0 -0 0 -0 -0 0 -0 -0 0 -0 -0 0 -0 
